<svg width="32" height="32" viewBox="0 0 32 32" fill="none" xmlns="http://www.w3.org/2000/svg">
<path d="M11.1539 4.00305C7.21929 4.00305 4.0018 7.18902 4.00181 11.1044C4.03934 12.0779 4.20143 13.1654 4.40023 14.0066H2.99599C1.63244 13.9764 1.63244 16.0371 2.99599 16.0065H5.02521C6.77759 20.5603 10.699 25.1133 15.5092 27.8674C15.8156 28.0416 16.191 28.0416 16.4974 27.8674C19.6774 26.0467 22.5124 23.3152 24.5811 20.3247C25.5508 18.9228 26.3472 17.464 26.9306 16.0065H29.0028C30.3663 16.0367 30.3663 13.976 29.0028 14.0066H27.5849C27.8492 12.9982 27.9856 12.0581 27.9989 11.1044C27.9989 7.18902 24.7795 4.00305 20.8449 4.00305C19.0134 4.00305 17.2915 4.69932 15.9935 5.88778C14.6966 4.70227 12.9837 4.00305 11.1539 4.00305ZM11.1539 6.00496C12.7475 6.00496 14.2159 6.72449 15.1772 7.91495C15.5501 8.37698 16.241 8.41428 16.6615 7.99511C17.9014 6.90612 19.4473 6.02768 20.8449 6.00496C23.6609 6.00496 25.9181 8.20634 25.9912 10.9676C25.9284 12.0378 25.764 13.141 25.5088 14.0066H21.0011C20.7361 14.0046 20.4811 14.1079 20.2922 14.2938L19.2727 15.3134L17.8938 12.5596C17.5246 11.825 16.476 11.825 16.1068 12.5596L15.1029 14.5673L13.9291 11.6299C13.7762 11.247 13.4039 10.9974 12.9917 11.001C12.6583 11.0043 12.3485 11.1733 12.1655 11.4521L10.4664 14.0067H6.51538C6.22992 12.9422 6.03775 11.8973 6.0115 10.9228C6.10789 8.18279 8.35325 6.00508 11.1539 6.00508V6.00496ZM12.7769 14.1394L14.0698 17.3717C14.3878 18.1732 15.5032 18.2233 15.892 17.4537L16.9993 15.239L18.1067 17.4537C18.4129 18.0634 19.2262 18.1944 19.7082 17.7115L21.4132 16.0065H24.749C24.2677 17.0662 23.6577 18.1427 22.9347 19.1879C21.1564 21.7586 18.6532 24.0239 16.0033 25.6682C12.1792 23.2952 8.98003 19.5725 7.30051 16.0065H10.9976C11.3345 16.0064 11.6487 15.8367 11.8335 15.5553L12.7769 14.1394Z" fill="#00A3A3"/>
</svg>
