<svg width="32" height="32" viewBox="0 0 32 32" fill="none" xmlns="http://www.w3.org/2000/svg">
<path d="M12.0033 2.99597C10.3586 2.99597 8.99757 4.3571 8.99757 6.00167V6.99772H4.00174C2.35654 6.99772 1.00385 8.35629 1.00385 10.0015V12.0014C1.00385 13.1372 1.64623 14.1747 2.65806 14.6809C2.77081 14.7373 2.88318 14.7944 2.99593 14.8508V25.9967C2.99593 27.6413 4.35703 29.0024 6.00163 29.0024H25.9967C27.6413 29.0024 29.0024 27.6413 29.0024 25.9967V14.8508C29.1156 14.7942 29.229 14.7376 29.3422 14.6809C30.3542 14.1747 30.9945 13.1372 30.9945 12.0014V10.0015C30.9945 8.35629 29.6437 6.99772 27.9985 6.99772H23.0007V6.00167C23.0007 4.3571 21.6416 2.99597 19.997 2.99597H12.0033ZM12.0033 4.99587H19.997C20.5683 4.99587 21.0009 5.43039 21.0009 6.00167V6.99772H10.9975V6.00167C10.9975 5.43039 11.432 4.99587 12.0033 4.99587ZM4.00174 8.99761H27.9985C28.563 8.99761 29.0024 9.43695 29.0024 10.0015V12.0014C29.0024 12.3795 28.7839 12.7248 28.4419 12.8958C24.4437 14.8962 20.4446 16.8942 16.4464 18.8955C16.1623 19.0376 15.8361 19.0376 15.5519 18.8955C11.5538 16.8942 7.55661 14.8962 3.5584 12.8958C3.21623 12.7246 2.99593 12.3795 2.99593 12.0014V10.0015C2.99593 9.43695 3.43723 8.99761 4.00174 8.99761ZM15.9992 14.9993C15.4469 14.9993 14.9992 15.4469 14.9992 15.9992C14.9992 16.5514 15.4469 16.9992 15.9992 16.9992C16.5514 16.9992 16.9991 16.5514 16.9991 15.9992C16.9991 15.4469 16.5514 14.9993 15.9992 14.9993ZM4.99778 15.8508C8.21639 17.4608 11.4336 19.0718 14.6516 20.6826C15.4969 21.1057 16.5014 21.1057 17.3467 20.6826C20.5648 19.0717 23.7838 17.4609 27.0025 15.8508V25.9967C27.0025 26.5679 26.5679 27.0006 25.9967 27.0006H6.00163C5.43041 27.0006 4.99778 26.5679 4.99778 25.9967V15.8508Z" fill="#A31D00"/>
</svg>
