<svg width="24" height="24" viewBox="0 0 24 24" fill="none" xmlns="http://www.w3.org/2000/svg">
<path d="M12.07 21.98C10.66 21.98 9.23997 21.44 8.16997 20.37L3.63997 15.84C2.53997 14.74 1.95997 13.22 2.02997 11.67L2.26997 6.66999C2.37997 4.27999 4.26997 2.38999 6.66997 2.26999L11.67 2.02999C13.22 1.96999 14.74 2.53999 15.84 3.63999L20.37 8.16999C22.52 10.32 22.52 13.83 20.37 15.98L15.98 20.37C14.9 21.44 13.49 21.98 12.07 21.98ZM4.69997 14.77L9.22997 19.3C9.98997 20.06 11 20.48 12.07 20.48C13.14 20.48 14.15 20.06 14.91 19.3L19.3 14.91C20.06 14.15 20.48 13.14 20.48 12.07C20.48 11 20.06 9.98999 19.3 9.22999L14.77 4.69999C13.97 3.89999 12.86 3.46999 11.74 3.52999L6.73997 3.76999C5.10997 3.83999 3.83997 5.10999 3.75997 6.72999L3.51997 11.73C3.46997 12.86 3.89997 13.97 4.69997 14.77Z" fill="white" fill-opacity="0.87"/>
<path d="M9.5 12.75C7.71 12.75 6.25 11.29 6.25 9.5C6.25 7.71 7.71 6.25 9.5 6.25C11.29 6.25 12.75 7.71 12.75 9.5C12.75 11.29 11.29 12.75 9.5 12.75ZM9.5 7.75C8.54 7.75 7.75 8.54 7.75 9.5C7.75 10.46 8.54 11.25 9.5 11.25C10.46 11.25 11.25 10.46 11.25 9.5C11.25 8.54 10.46 7.75 9.5 7.75Z" fill="white" fill-opacity="0.87"/>
</svg>
