<svg width="30" height="26" viewBox="0 0 30 26" fill="none" xmlns="http://www.w3.org/2000/svg">
<path d="M11.0033 -0.00402832C9.35864 -0.00402832 7.99757 1.3571 7.99757 3.00167V3.99772H3.00174C1.35654 3.99772 0.00384521 5.35629 0.00384521 7.00147V9.00136C0.00384521 10.1372 0.646227 11.1747 1.65806 11.6809C1.77081 11.7373 1.88318 11.7944 1.99593 11.8508V22.9967C1.99593 24.6413 3.35703 26.0024 5.00163 26.0024H24.9967C26.6413 26.0024 28.0024 24.6413 28.0024 22.9967V11.8508C28.1156 11.7942 28.229 11.7376 28.3422 11.6809C29.3542 11.1747 29.9945 10.1372 29.9945 9.00136V7.00147C29.9945 5.35629 28.6437 3.99772 26.9985 3.99772H22.0007V3.00167C22.0007 1.3571 20.6416 -0.00402832 18.997 -0.00402832H11.0033ZM11.0033 1.99587H18.997C19.5683 1.99587 20.0009 2.43039 20.0009 3.00167V3.99772H9.99747V3.00167C9.99747 2.43039 10.432 1.99587 11.0033 1.99587ZM3.00174 5.99761H26.9985C27.563 5.99761 28.0024 6.43695 28.0024 7.00147V9.00136C28.0024 9.37952 27.7839 9.72476 27.4419 9.89585C23.4437 11.8962 19.4446 13.8942 15.4464 15.8955C15.1623 16.0376 14.8361 16.0376 14.5519 15.8955C10.5538 13.8942 6.55661 11.8962 2.5584 9.89585C2.21623 9.72464 1.99593 9.37952 1.99593 9.00136V7.00147C1.99593 6.43695 2.43723 5.99761 3.00174 5.99761ZM14.9992 11.9993C14.4469 11.9993 13.9992 12.4469 13.9992 12.9992C13.9992 13.5514 14.4469 13.9992 14.9992 13.9992C15.5514 13.9992 15.9991 13.5514 15.9991 12.9992C15.9991 12.4469 15.5514 11.9993 14.9992 11.9993ZM3.99778 12.8508C7.21639 14.4608 10.4336 16.0718 13.6516 17.6826C14.4969 18.1057 15.5014 18.1057 16.3467 17.6826C19.5648 16.0717 22.7838 14.4609 26.0025 12.8508V22.9967C26.0025 23.5679 25.5679 24.0006 24.9967 24.0006H5.00163C4.43041 24.0006 3.99778 23.5679 3.99778 22.9967V12.8508Z" fill="#A31D00"/>
</svg>
