<svg width="14" height="15" viewBox="0 0 14 15" fill="none" xmlns="http://www.w3.org/2000/svg">
<path d="M5.25146 1.81073C4.53193 1.81073 3.93646 2.40622 3.93646 3.12573V3.56149H1.75079C1.03101 3.56149 0.439209 4.15587 0.439209 4.87563V5.75059C0.439209 6.24753 0.720251 6.70141 1.16293 6.92289C1.21226 6.94757 1.26142 6.97255 1.31075 6.99723V11.8736C1.31075 12.5931 1.90623 13.1886 2.62574 13.1886H11.3736C12.0931 13.1886 12.6886 12.5931 12.6886 11.8736V6.99723C12.7381 6.97244 12.7877 6.94768 12.8372 6.92289C13.28 6.70144 13.5601 6.24753 13.5601 5.75059V4.87563C13.5601 4.15587 12.9692 3.56149 12.2494 3.56149H10.0629V3.12573C10.0629 2.40622 9.46824 1.81073 8.74871 1.81073H5.25146ZM5.25146 2.68568H8.74871C8.99866 2.68568 9.1879 2.87579 9.1879 3.12573V3.56149H4.81142V3.12573C4.81142 2.87579 5.00152 2.68568 5.25146 2.68568ZM1.75079 4.43645H12.2494C12.4964 4.43645 12.6886 4.62866 12.6886 4.87563V5.75059C12.6886 5.91603 12.593 6.06707 12.4433 6.14193C10.6941 7.01707 8.94452 7.89122 7.19533 8.76679C7.07101 8.82896 6.9283 8.82896 6.80399 8.76679C5.0548 7.89122 3.30604 7.01707 1.55683 6.14193C1.40713 6.06702 1.31075 5.91603 1.31075 5.75059V4.87563C1.31075 4.62866 1.50381 4.43645 1.75079 4.43645ZM6.99966 7.06217C6.75805 7.06217 6.56218 7.25802 6.56218 7.49964C6.56218 7.74125 6.75804 7.93712 6.99966 7.93712C7.24128 7.93712 7.43714 7.74125 7.43714 7.49964C7.43713 7.25802 7.24127 7.06217 6.99966 7.06217ZM2.18655 7.4347C3.5947 8.13911 5.00224 8.8439 6.41009 9.54861C6.77994 9.73375 7.21938 9.73375 7.58923 9.54861C8.99712 8.84387 10.4054 8.13913 11.8136 7.4347V11.8736C11.8136 12.1235 11.6235 12.3127 11.3736 12.3127H2.62574C2.37583 12.3127 2.18655 12.1235 2.18655 11.8736V7.4347Z" fill="#A36200"/>
</svg>
