<svg width="14" height="15" viewBox="0 0 14 15" fill="none" xmlns="http://www.w3.org/2000/svg">
<path d="M12.5359 6.44417L11.9526 6.12333L6.70259 3.20667H6.63843C6.60266 3.19155 6.56555 3.17983 6.52759 3.17167H6.41676H6.31176C6.2719 3.17983 6.23286 3.19155 6.19509 3.20667H6.13093L0.880925 6.12333C0.791151 6.17421 0.71648 6.24799 0.664528 6.33715C0.612577 6.4263 0.585205 6.52765 0.585205 6.63083C0.585205 6.73402 0.612577 6.83536 0.664528 6.92452C0.71648 7.01368 0.791151 7.08746 0.880925 7.13833L2.33343 7.94333V10.7083C2.33343 11.1725 2.5178 11.6176 2.84599 11.9458C3.17418 12.274 3.6193 12.4583 4.08343 12.4583H8.75009C9.21422 12.4583 9.65934 12.274 9.98753 11.9458C10.3157 11.6176 10.5001 11.1725 10.5001 10.7083V7.94333L11.6668 7.29V8.95833C11.6668 9.11304 11.7282 9.26142 11.8376 9.37081C11.947 9.48021 12.0954 9.54167 12.2501 9.54167C12.4048 9.54167 12.5532 9.48021 12.6626 9.37081C12.772 9.26142 12.8334 9.11304 12.8334 8.95833V6.95167C12.8332 6.8483 12.8056 6.74684 12.7533 6.65767C12.7011 6.5685 12.626 6.49482 12.5359 6.44417ZM9.33343 10.7083C9.33343 10.863 9.27197 11.0114 9.16257 11.1208C9.05317 11.2302 8.9048 11.2917 8.75009 11.2917H4.08343C3.92872 11.2917 3.78034 11.2302 3.67095 11.1208C3.56155 11.0114 3.50009 10.863 3.50009 10.7083V8.59083L6.13093 10.0492L6.21843 10.0842H6.27093C6.31934 10.0903 6.36834 10.0903 6.41676 10.0842C6.46518 10.0903 6.51417 10.0903 6.56259 10.0842H6.61509C6.64606 10.0776 6.67566 10.0658 6.70259 10.0492L9.33343 8.59083V10.7083ZM6.41676 8.87667L2.36843 6.625L6.41676 4.37333L10.4651 6.625L6.41676 8.87667Z" fill="#0055A3"/>
</svg>
