<svg width="29" height="29" viewBox="0 0 29 29" fill="none" xmlns="http://www.w3.org/2000/svg">
<path d="M6.97103 26.932H5.97103C4.87803 26.932 3.91203 26.498 3.25203 25.712C2.59203 24.925 2.32303 23.848 2.51603 22.758C2.89403 20.612 4.87603 18.932 7.03003 18.932H9.54803V5.80296C9.55024 5.04234 9.84032 4.31077 10.36 3.75533C10.8796 3.19988 11.5902 2.86177 12.349 2.80896L23.349 2.07596C23.7586 2.05008 24.1692 2.10794 24.5557 2.246C24.9422 2.38406 25.2965 2.59943 25.597 2.87896C26.201 3.44396 26.548 4.24296 26.548 5.06996L26.538 19.439C26.537 19.659 26.526 19.877 26.485 20.107C26.107 22.252 24.125 23.932 21.971 23.932H20.971C19.878 23.932 18.912 23.498 18.252 22.712C17.592 21.925 17.323 20.848 17.516 19.758C17.894 17.612 19.876 15.932 22.03 15.932H24.548V11.07C24.548 10.79 24.436 10.53 24.231 10.339C24.1316 10.2448 24.0136 10.1725 23.8847 10.1265C23.7557 10.0805 23.6186 10.062 23.482 10.072L12.482 10.805C12.2291 10.8226 11.9922 10.9353 11.819 11.1205C11.6457 11.3056 11.5489 11.5494 11.548 11.803V22.432C11.548 22.521 11.536 22.607 11.515 22.689C11.506 22.994 11.495 23.05 11.486 23.107C11.106 25.251 9.12403 26.932 6.97103 26.932ZM7.02903 20.932C5.85703 20.932 4.69203 21.927 4.48403 23.106C4.39403 23.62 4.50103 24.088 4.78403 24.427C5.05703 24.752 5.47903 24.932 5.97103 24.932H6.97103C8.14303 24.932 9.30803 23.937 9.51603 22.758C9.51303 22.756 9.52703 22.465 9.53603 20.932H7.02903ZM22.029 17.932C20.857 17.932 19.692 18.927 19.484 20.106C19.394 20.62 19.501 21.088 19.784 21.427C20.057 21.752 20.479 21.932 20.971 21.932H21.971C23.143 21.932 24.308 20.937 24.516 19.758C24.536 19.645 24.537 19.535 24.537 19.428L24.544 17.932H22.029ZM12.48 4.80496C12.2271 4.82263 11.9902 4.93535 11.817 5.12047C11.6437 5.30559 11.5469 5.54941 11.546 5.80296V8.97496C11.799 8.88496 12.067 8.82796 12.347 8.80896L23.347 8.07596C23.755 8.05296 24.164 8.10695 24.546 8.24195V5.06896C24.546 4.78896 24.434 4.52896 24.229 4.33796C24.1295 4.24404 24.0115 4.17182 23.8825 4.12586C23.7536 4.07991 23.6166 4.06121 23.48 4.07096L12.48 4.80496Z" fill="#A000A3"/>
</svg>
